<?xml version="1.0" encoding="utf-8"?>
<svg id="logo" version="1.1" x="0px" y="0px" viewBox="0 0 300 106.02" xmlns="http://www.w3.org/2000/svg">
  <path d="M256.9,85.7h13.33l-2.58,13.33h-13.33L256.9,85.7z M286.65,46.65l-2.2,10.45h-34.46c0.97,3.29,1.02,7.28,0.12,12.01 l-1.51,7.73c-1.52,7.83-4.28,13.48-8.29,16.97s-9.56,5.23-16.63,5.23h-19.47l8.14-41.93h-30.6l-6.1,31.48h20.45l-2.05,10.45h-33.03 l8.14-41.93h-15.23c0.33,1.26,0.51,2.6,0.51,4.06c0,7.78-3.81,13.13-11.44,16.06l6.21,21.82h-13.79l-4.85-19.77h-6.52l-3.86,19.77 h-12.57l8.14-41.93h-2.71c-0.04,0-0.08,0-0.12,0h-11.29l-8.14,41.93H82.53l-9.01-26.51L54.28,99.03H41.85L50,57.1h-9.05l0,0H29.13 l0,0H7.33l2.2-10.45h21.62l8.12-41.81h10.98l9.01,26.51L78.52,4.83h12.42l-8.12,41.81h12.69l8.12-41.81h19.47 c6.36,0,11.01,1.93,13.94,5.79c2.93,3.86,3.71,9.38,2.35,16.55l-1.51,7.73c-0.91,4.7-2.28,8.61-4.09,11.74H286.65z M141.66,61.91 c0-1.77-0.62-2.99-1.86-3.67c-1.24-0.68-3.2-1.02-5.87-1.02h-5.61l-2.2,11.59h5.61c3.54,0,6.07-0.48,7.61-1.44 C140.89,66.41,141.66,64.59,141.66,61.91z M238.03,62.9c-0.03-1.77-0.54-3.16-1.55-4.17c-1.01-1.01-2.58-1.51-4.7-1.51h-6.89 l-6.06,31.36h6.89c2.93,0,5.18-0.97,6.74-2.92c1.56-1.94,2.75-4.94,3.56-8.98l1.52-7.58C237.89,66.74,238.06,64.67,238.03,62.9z M108.1,46.65H115c2.93,0,5.18-0.97,6.74-2.92c1.56-1.94,2.75-4.94,3.56-8.98l1.51-7.58c0.35-2.37,0.52-4.44,0.49-6.21 c-0.03-1.77-0.54-3.16-1.55-4.17c-1.01-1.01-2.58-1.51-4.7-1.51h-6.89L108.1,46.65z M74.73,27.56L61.17,46.65h9.84L74.73,27.56z M42.97,46.65h9.6l-5.94-18.86L42.97,46.65z M58.06,76.31L71.7,57.1h-2.73l0,0h-7.16L58.06,76.31z M86.17,76.08l3.68-18.98h-9.06 l0,0h-0.6L86.17,76.08z"/>
</svg>